<?xml version="1.0" encoding="UTF-8"?> <svg xmlns="http://www.w3.org/2000/svg" viewBox="0 0 373.07 83.34" width="373.07" height="83.34"><defs><style>.cls-1{fill:#878787;}.cls-2{fill:#3c3c3b;}.cls-3{fill:#e6332a;}.cls-4{fill:#be1622;}.cls-5{fill:#f39200;}</style></defs><title>logo-lenacustica</title><g id="Livello_2" data-name="Livello 2"><g id="Livello_1-2" data-name="Livello 1"><path class="cls-1" d="M105.15,82a4.52,4.52,0,0,0,.74-.06,5.41,5.41,0,0,0,.57-.12V83a2.53,2.53,0,0,1-.7.19,5.14,5.14,0,0,1-.82.08q-2.79,0-2.79-2.94V74.58h-1.38v-.7l1.38-.61.61-2h.84v2.23h2.79v1.13H103.6v5.65a1.91,1.91,0,0,0,.42,1.33A1.43,1.43,0,0,0,105.15,82Z"></path><path class="cls-1" d="M116.35,73.27a5.68,5.68,0,0,1,1.15.11l-.2,1.35a4.83,4.83,0,0,0-1-.13,2.56,2.56,0,0,0-2,.94,3.47,3.47,0,0,0-.83,2.36v5.15H112v-9.6h1.2l.17,1.78h.07a4.07,4.07,0,0,1,1.29-1.45A2.87,2.87,0,0,1,116.35,73.27Z"></path><path class="cls-1" d="M128.79,83.05l-.29-1.36h-.07A4,4,0,0,1,127,82.91a4.43,4.43,0,0,1-1.78.32,3.2,3.2,0,0,1-2.24-.74,2.68,2.68,0,0,1-.81-2.09q0-2.91,4.65-3.05l1.63-.06V76.7A2.42,2.42,0,0,0,128,75a2,2,0,0,0-1.55-.54,6.37,6.37,0,0,0-2.72.74l-.44-1.12a7.34,7.34,0,0,1,1.55-.6,6.56,6.56,0,0,1,1.7-.22,3.64,3.64,0,0,1,2.54.76,3.21,3.21,0,0,1,.83,2.45v6.55Zm-3.28-1a2.94,2.94,0,0,0,2.13-.75,2.73,2.73,0,0,0,.78-2.08v-.87l-1.46.06a5.24,5.24,0,0,0-2.5.54,1.62,1.62,0,0,0-.77,1.48,1.52,1.52,0,0,0,.48,1.21A2,2,0,0,0,125.51,82Z"></path><path class="cls-1" d="M139.56,82a4.44,4.44,0,0,0,.74-.06,5.41,5.41,0,0,0,.57-.12V83a2.45,2.45,0,0,1-.69.19,5.37,5.37,0,0,1-.83.08q-2.79,0-2.79-2.94V74.58h-1.37v-.7l1.37-.61.62-2H138v2.23h2.78v1.13H138v5.65a1.91,1.91,0,0,0,.41,1.33A1.43,1.43,0,0,0,139.56,82Z"></path><path class="cls-1" d="M149.48,82a4.56,4.56,0,0,0,.75-.06,5.41,5.41,0,0,0,.57-.12V83a2.53,2.53,0,0,1-.7.19,5.15,5.15,0,0,1-.83.08c-1.85,0-2.78-1-2.78-2.94V74.58h-1.38v-.7l1.38-.61.61-2h.84v2.23h2.79v1.13h-2.79v5.65a2,2,0,0,0,.41,1.33A1.46,1.46,0,0,0,149.48,82Z"></path><path class="cls-1" d="M162.21,83.05l-.29-1.36h-.06a4,4,0,0,1-1.44,1.22,4.39,4.39,0,0,1-1.78.32,3.22,3.22,0,0,1-2.24-.74,2.68,2.68,0,0,1-.81-2.09q0-2.91,4.65-3.05l1.63-.06V76.7a2.47,2.47,0,0,0-.48-1.67,2,2,0,0,0-1.56-.54,6.41,6.41,0,0,0-2.72.74l-.44-1.12a7.34,7.34,0,0,1,1.55-.6,6.61,6.61,0,0,1,1.7-.22,3.64,3.64,0,0,1,2.54.76,3.17,3.17,0,0,1,.83,2.45v6.55Zm-3.28-1a2.93,2.93,0,0,0,2.13-.75,2.73,2.73,0,0,0,.78-2.08v-.87l-1.46.06a5.27,5.27,0,0,0-2.5.54,1.62,1.62,0,0,0-.77,1.48,1.52,1.52,0,0,0,.48,1.21A2,2,0,0,0,158.93,82Z"></path><path class="cls-1" d="M182.12,83.05V76.8a2.58,2.58,0,0,0-.49-1.72,1.9,1.9,0,0,0-1.52-.57,2.46,2.46,0,0,0-2,.78,3.72,3.72,0,0,0-.65,2.4v5.36H176V76.8a2.63,2.63,0,0,0-.49-1.72,1.93,1.93,0,0,0-1.54-.57,2.36,2.36,0,0,0-2,.82,4.43,4.43,0,0,0-.64,2.68v5h-1.45v-9.6h1.18l.24,1.31h.07a2.78,2.78,0,0,1,1.16-1.09,3.48,3.48,0,0,1,1.68-.4,2.86,2.86,0,0,1,2.94,1.63h.07a3.06,3.06,0,0,1,1.25-1.19,3.87,3.87,0,0,1,1.86-.44,3.25,3.25,0,0,1,2.44.84,3.75,3.75,0,0,1,.81,2.68v6.26Z"></path><path class="cls-1" d="M194.22,83.23a4.39,4.39,0,0,1-3.36-1.3,5,5,0,0,1-1.23-3.6,5.58,5.58,0,0,1,1.14-3.69,3.82,3.82,0,0,1,3.07-1.37,3.63,3.63,0,0,1,2.86,1.19,4.56,4.56,0,0,1,1.05,3.13v.92h-6.61a3.81,3.81,0,0,0,.85,2.57,3,3,0,0,0,2.28.88,7.77,7.77,0,0,0,3.07-.65v1.3a7.24,7.24,0,0,1-1.46.47A7.91,7.91,0,0,1,194.22,83.23Zm-.39-8.74a2.4,2.4,0,0,0-1.85.75,3.48,3.48,0,0,0-.81,2.09h5a3.2,3.2,0,0,0-.61-2.11A2.15,2.15,0,0,0,193.83,74.49Z"></path><path class="cls-1" d="M210.4,83.05V76.84a2.48,2.48,0,0,0-.54-1.75,2.16,2.16,0,0,0-1.67-.58,2.77,2.77,0,0,0-2.21.81,4.11,4.11,0,0,0-.7,2.69v5h-1.46v-9.6H205l.23,1.31h.07a3,3,0,0,1,1.26-1.1,4,4,0,0,1,1.79-.39,3.62,3.62,0,0,1,2.61.84,3.54,3.54,0,0,1,.88,2.68v6.26Z"></path><path class="cls-1" d="M221.53,82a4.56,4.56,0,0,0,.75-.06,5.72,5.72,0,0,0,.56-.12V83a2.35,2.35,0,0,1-.69.19,5.26,5.26,0,0,1-.83.08q-2.79,0-2.79-2.94V74.58h-1.37v-.7l1.37-.61.62-2H220v2.23h2.78v1.13H220v5.65a2,2,0,0,0,.41,1.33A1.43,1.43,0,0,0,221.53,82Z"></path><path class="cls-1" d="M228.23,70.84a1,1,0,0,1,.25-.73.85.85,0,0,1,.61-.23.83.83,0,0,1,.6.24,1,1,0,0,1,.26.72,1,1,0,0,1-.26.74.83.83,0,0,1-.6.24.82.82,0,0,1-.61-.24A1,1,0,0,1,228.23,70.84Zm1.58,12.21h-1.46v-9.6h1.46Z"></path><path class="cls-1" d="M250.64,83.05l-.29-1.36h-.07a4,4,0,0,1-1.43,1.22,4.43,4.43,0,0,1-1.78.32,3.2,3.2,0,0,1-2.24-.74A2.68,2.68,0,0,1,244,80.4q0-2.91,4.65-3.05l1.63-.06V76.7a2.42,2.42,0,0,0-.49-1.67,2,2,0,0,0-1.55-.54,6.37,6.37,0,0,0-2.72.74l-.45-1.12a7.65,7.65,0,0,1,1.56-.6,6.56,6.56,0,0,1,1.7-.22,3.64,3.64,0,0,1,2.54.76,3.21,3.21,0,0,1,.83,2.45v6.55Zm-3.28-1a2.94,2.94,0,0,0,2.13-.75,2.72,2.72,0,0,0,.77-2.08v-.87l-1.45.06a5.24,5.24,0,0,0-2.5.54,1.62,1.62,0,0,0-.77,1.48,1.52,1.52,0,0,0,.48,1.21A2,2,0,0,0,247.36,82Z"></path><path class="cls-1" d="M262.14,83.23a4.07,4.07,0,0,1-3.22-1.29,5.22,5.22,0,0,1-1.15-3.63,5.44,5.44,0,0,1,1.16-3.72,4.19,4.19,0,0,1,3.31-1.32,6.64,6.64,0,0,1,1.39.15,4.71,4.71,0,0,1,1.08.35L264.27,75a6.57,6.57,0,0,0-1.06-.32,4.36,4.36,0,0,0-1-.13c-2,0-2.93,1.25-2.93,3.73A4.5,4.5,0,0,0,260,81a2.5,2.5,0,0,0,2.12.95,6.55,6.55,0,0,0,2.46-.52v1.29A5.28,5.28,0,0,1,262.14,83.23Z"></path><path class="cls-1" d="M271.81,73.45v6.23a2.53,2.53,0,0,0,.53,1.75A2.18,2.18,0,0,0,274,82a2.73,2.73,0,0,0,2.2-.82,4.19,4.19,0,0,0,.7-2.69v-5h1.45v9.6h-1.2L277,81.76h-.08a2.86,2.86,0,0,1-1.24,1.09,4.18,4.18,0,0,1-1.81.38,3.68,3.68,0,0,1-2.62-.83,3.57,3.57,0,0,1-.87-2.67V73.45Z"></path><path class="cls-1" d="M291.24,80.43a2.39,2.39,0,0,1-1,2.07,4.64,4.64,0,0,1-2.8.73,6,6,0,0,1-3-.61V81.27a7.29,7.29,0,0,0,1.48.56,6.43,6.43,0,0,0,1.53.2,3.42,3.42,0,0,0,1.76-.37,1.21,1.21,0,0,0,.61-1.11,1.17,1.17,0,0,0-.49-1,7.57,7.57,0,0,0-1.89-.95,10,10,0,0,1-1.91-.87,2.58,2.58,0,0,1-.84-.84,2.18,2.18,0,0,1-.28-1.13,2.15,2.15,0,0,1,1-1.86,4.46,4.46,0,0,1,2.62-.68,7.69,7.69,0,0,1,3,.63l-.52,1.19a6.87,6.87,0,0,0-2.62-.6,3.08,3.08,0,0,0-1.56.32,1,1,0,0,0-.52.9,1.09,1.09,0,0,0,.19.66,2,2,0,0,0,.64.51,13,13,0,0,0,1.68.71,6.36,6.36,0,0,1,2.31,1.26A2.21,2.21,0,0,1,291.24,80.43Z"></path><path class="cls-1" d="M300.3,82A4.44,4.44,0,0,0,301,82a5.41,5.41,0,0,0,.57-.12V83a2.45,2.45,0,0,1-.69.19,5.37,5.37,0,0,1-.83.08q-2.79,0-2.79-2.94V74.58h-1.37v-.7l1.37-.61.62-2h.84v2.23h2.78v1.13h-2.78v5.65a1.91,1.91,0,0,0,.41,1.33A1.43,1.43,0,0,0,300.3,82Z"></path><path class="cls-1" d="M307,70.84a1,1,0,0,1,.25-.73.9.9,0,0,1,1.21,0,1,1,0,0,1,.26.72,1,1,0,0,1-.26.74.85.85,0,0,1-.6.24.82.82,0,0,1-.61-.24A1,1,0,0,1,307,70.84Zm1.58,12.21h-1.46v-9.6h1.46Z"></path><path class="cls-1" d="M319.09,83.23a4.09,4.09,0,0,1-3.23-1.29,5.27,5.27,0,0,1-1.14-3.63,5.39,5.39,0,0,1,1.16-3.72,4.17,4.17,0,0,1,3.31-1.32,6.48,6.48,0,0,1,1.38.15,4.82,4.82,0,0,1,1.09.35L321.21,75a6.16,6.16,0,0,0-1-.32,4.43,4.43,0,0,0-1-.13c-1.95,0-2.92,1.25-2.92,3.73a4.43,4.43,0,0,0,.71,2.72,2.5,2.5,0,0,0,2.12.95,6.55,6.55,0,0,0,2.46-.52v1.29A5.28,5.28,0,0,1,319.09,83.23Z"></path><path class="cls-1" d="M327.26,70.84a1,1,0,0,1,.25-.73.87.87,0,0,1,.61-.23.85.85,0,0,1,.61.24.94.94,0,0,1,.25.72,1,1,0,0,1-.25.74.85.85,0,0,1-.61.24.84.84,0,0,1-.61-.24A1,1,0,0,1,327.26,70.84Zm1.58,12.21h-1.45v-9.6h1.45Z"></path><path class="cls-2" d="M100.81,65.28V34.7h8.27V58.61h11.77v6.67Z"></path><path class="cls-2" d="M141.75,65.28H123.6V34.7h18.15v6.63h-9.89v4.81H141v6.63h-9.16v5.77h9.89Z"></path><path class="cls-2" d="M174.08,65.28H163.25L152.08,43.74h-.19c.26,3.38.4,6,.4,7.76V65.28H145V34.7h10.79L166.88,56H167c-.2-3.08-.29-5.55-.29-7.42V34.7h7.36Z"></path><path class="cls-2" d="M197.3,65.28l-1.5-5.73h-9.93l-1.55,5.73h-9.08l10-30.7h11l10.1,30.7Zm-3.22-12.51-1.31-5c-.31-1.11-.68-2.56-1.12-4.33s-.73-3-.87-3.8c-.13.71-.37,1.88-.74,3.51s-1.19,4.85-2.46,9.64Z"></path><path class="cls-2" d="M219.75,41a5.26,5.26,0,0,0-4.6,2.41,11.65,11.65,0,0,0-1.66,6.67q0,8.82,6.72,8.82a14,14,0,0,0,3.93-.56c1.27-.38,2.54-.83,3.83-1.36v7a21.21,21.21,0,0,1-8.66,1.7q-6.93,0-10.62-4C206.23,59,205,55.14,205,50.07a18.55,18.55,0,0,1,1.79-8.34,12.77,12.77,0,0,1,5.15-5.53,15.49,15.49,0,0,1,7.89-1.94,21.69,21.69,0,0,1,9.47,2.16l-2.53,6.5a30.4,30.4,0,0,0-3.38-1.34A12,12,0,0,0,219.75,41Z"></path><path class="cls-2" d="M257.78,34.7V53.11q0,6-3.4,9.29t-9.8,3.3q-6.24,0-9.61-3.2c-2.23-2.14-3.35-5.2-3.35-9.21V34.7h8.3V52.65c0,2.16.4,3.73,1.21,4.7a5.22,5.22,0,0,0,7.25,0c.76-1,1.14-2.55,1.14-4.76V34.7Z"></path><path class="cls-2" d="M282.05,56a9,9,0,0,1-1.44,5,9.42,9.42,0,0,1-4.16,3.43,15.39,15.39,0,0,1-6.38,1.23,26.35,26.35,0,0,1-5.13-.43,19.22,19.22,0,0,1-4.3-1.5V56.41a24.18,24.18,0,0,0,4.91,1.89,18,18,0,0,0,4.69.68,4.58,4.58,0,0,0,2.69-.63,2,2,0,0,0,.86-1.65,1.77,1.77,0,0,0-.34-1.09,4.07,4.07,0,0,0-1.11-1q-.76-.48-4.07-2a19.86,19.86,0,0,1-4.49-2.64,8.07,8.07,0,0,1-2.21-2.93,9.71,9.71,0,0,1-.72-3.91,7.82,7.82,0,0,1,3.07-6.58q3.07-2.37,8.45-2.37a23.78,23.78,0,0,1,9.68,2.2l-2.53,6.38a18.34,18.34,0,0,0-7.4-2,3.79,3.79,0,0,0-2.34.57,1.7,1.7,0,0,0-.74,1.4,2,2,0,0,0,.93,1.61A35.88,35.88,0,0,0,275,47a13.94,13.94,0,0,1,5.49,3.82A8.25,8.25,0,0,1,282.05,56Z"></path><path class="cls-2" d="M298.13,65.28h-8.27V41.46H282.4V34.7h23.17v6.76h-7.44Z"></path><path class="cls-2" d="M307.8,65.28V34.7h8.3V65.28Z"></path><path class="cls-2" d="M333.24,41a5.27,5.27,0,0,0-4.6,2.41A11.73,11.73,0,0,0,327,50.12q0,8.82,6.71,8.82a13.93,13.93,0,0,0,3.93-.56A39.92,39.92,0,0,0,341.46,57v7a21.18,21.18,0,0,1-8.66,1.7q-6.92,0-10.61-4c-2.46-2.68-3.69-6.54-3.69-11.61a18.41,18.41,0,0,1,1.79-8.34,12.75,12.75,0,0,1,5.14-5.53,15.55,15.55,0,0,1,7.9-1.94,21.69,21.69,0,0,1,9.47,2.16l-2.53,6.5a29.79,29.79,0,0,0-3.39-1.34A11.91,11.91,0,0,0,333.24,41Z"></path><path class="cls-2" d="M364,65.28l-1.51-5.73H352.6l-1.55,5.73H342l10-30.7h11l10.1,30.7Zm-3.22-12.51-1.32-5c-.31-1.11-.68-2.56-1.12-4.33s-.73-3-.87-3.8c-.12.71-.37,1.88-.74,3.51s-1.19,4.85-2.46,9.64Z"></path></g><g id="Livello_2-2" data-name="Livello 2"><path class="cls-3" d="M41.56,70.6V83.34H18.13A18.1,18.1,0,0,1,2.45,56.19L25,17.13l7.07,13.45L17,58.22A8.38,8.38,0,0,0,24.41,70.6Z"></path><path class="cls-3" d="M49.12,28.86V63L41.56,48.64,36.12,38.28l4.34-8h0a5.72,5.72,0,0,1,1.1-1.44A5.59,5.59,0,0,1,49.12,28.86Z"></path><path class="cls-4" d="M58.66,63H49.12V28.86a5.72,5.72,0,0,1,1.1,1.44L63.55,54.81A5.56,5.56,0,0,1,58.66,63Z"></path><path class="cls-5" d="M49.12,63H32a5.56,5.56,0,0,1-4.88-8.21l9-16.53,5.44,10.36Z"></path><path class="cls-5" d="M72.55,83.34H49.12V70.6H66.27a8.38,8.38,0,0,0,7.37-12.38L52.7,19.7a8.29,8.29,0,0,0-3.58-3.49,8.52,8.52,0,0,0-7.56,0A8.29,8.29,0,0,0,38,19.7l-1.57,2.89L29.47,9.39l.19-.34A17.83,17.83,0,0,1,41.56.4a18.17,18.17,0,0,1,7.56,0A17.83,17.83,0,0,1,61,9.05L88.23,56.19A18.1,18.1,0,0,1,72.55,83.34Z"></path></g></g></svg> 